<?xml version="1.0" encoding="UTF-8"?>
<svg xmlns="http://www.w3.org/2000/svg" xmlns:xlink="http://www.w3.org/1999/xlink" width="230px" height="256px" viewBox="0 0 230 256" version="1.1">
<g id="surface1">
<path style=" stroke:none;fill-rule:nonzero;fill:rgb(32.54902%,50.980392%,63.137255%);fill-opacity:1;" d="M 74.171875 197.898438 C 74.171875 197.898438 62.3125 203.578125 82.605469 205.5 C 107.195312 207.808594 119.765625 207.476562 146.863281 203.253906 C 146.863281 203.253906 153.988281 206.933594 163.933594 210.121094 C 103.191406 231.558594 26.457031 208.878906 74.171875 197.898438 "/>
<path style=" stroke:none;fill-rule:nonzero;fill:rgb(32.54902%,50.980392%,63.137255%);fill-opacity:1;" d="M 66.746094 169.921875 C 66.746094 169.921875 53.449219 178.027344 73.757812 179.757812 C 100.027344 181.992188 120.769531 182.171875 156.664062 176.480469 C 156.664062 176.480469 161.628906 180.625 169.4375 182.894531 C 95.988281 200.578125 14.1875 184.289062 66.746094 169.921875 "/>
<path style=" stroke:none;fill-rule:nonzero;fill:rgb(90.588235%,43.529412%,0%);fill-opacity:1;" d="M 129.320312 122.460938 C 144.289062 136.652344 125.390625 149.421875 125.390625 149.421875 C 125.390625 149.421875 163.394531 133.265625 145.941406 113.035156 C 129.640625 94.164062 117.136719 84.792969 184.8125 52.46875 C 184.8125 52.46875 78.585938 74.316406 129.320312 122.460938 "/>
<path style=" stroke:none;fill-rule:nonzero;fill:rgb(32.54902%,50.980392%,63.137255%);fill-opacity:1;" d="M 209.664062 218.59375 C 209.664062 218.59375 218.4375 224.546875 199.996094 229.152344 C 164.933594 237.902344 54.0625 240.542969 23.265625 229.503906 C 12.191406 225.535156 32.953125 220.03125 39.488281 218.875 C 46.296875 217.660156 50.191406 217.886719 50.191406 217.886719 C 37.878906 210.742188 -29.398438 231.910156 16.019531 237.972656 C 139.867188 254.515625 241.789062 230.527344 209.664062 218.59375 "/>
<path style=" stroke:none;fill-rule:nonzero;fill:rgb(32.54902%,50.980392%,63.137255%);fill-opacity:1;" d="M 79.871094 140.933594 C 79.871094 140.933594 23.476562 151.964844 59.898438 155.96875 C 75.28125 157.664062 105.9375 157.28125 134.496094 155.3125 C 157.835938 153.691406 181.273438 150.242188 181.273438 150.242188 C 181.273438 150.242188 173.042969 153.144531 167.089844 156.492188 C 109.820312 168.898438 -0.816406 163.128906 31.035156 150.4375 C 57.972656 139.714844 79.871094 140.933594 79.871094 140.933594 "/>
<path style=" stroke:none;fill-rule:nonzero;fill:rgb(32.54902%,50.980392%,63.137255%);fill-opacity:1;" d="M 181.039062 187.503906 C 239.257812 162.589844 212.339844 138.648438 193.554688 141.875 C 188.945312 142.664062 186.894531 143.347656 186.894531 143.347656 C 186.894531 143.347656 188.605469 141.140625 191.871094 140.1875 C 229.039062 129.425781 257.621094 171.925781 179.871094 188.757812 C 179.871094 188.757812 180.769531 188.097656 181.039062 187.503906 "/>
<path style=" stroke:none;fill-rule:nonzero;fill:rgb(90.588235%,43.529412%,0%);fill-opacity:1;" d="M 145.941406 0.273438 C 145.941406 0.273438 178.183594 26.835938 115.359375 67.679688 C 64.984375 100.441406 103.871094 119.121094 115.339844 140.464844 C 85.933594 118.617188 64.355469 99.382812 78.832031 81.480469 C 100.082031 55.207031 158.953125 42.464844 145.941406 0.273438 "/>
<path style=" stroke:none;fill-rule:nonzero;fill:rgb(32.54902%,50.980392%,63.137255%);fill-opacity:1;" d="M 85.59375 255.011719 C 141.472656 257.957031 227.285156 253.378906 229.316406 231.601562 C 229.316406 231.601562 225.414062 239.859375 183.136719 246.414062 C 135.441406 253.804688 76.613281 252.941406 41.722656 248.203125 C 41.722656 248.203125 48.867188 253.074219 85.59375 255.011719 "/>
</g>
</svg>
