<?xml version="1.0" encoding="UTF-8"?>
<svg xmlns="http://www.w3.org/2000/svg" xmlns:xlink="http://www.w3.org/1999/xlink" viewBox="0 0 256 256" width="256px" height="256px">
<g id="surface29102567">
<path style=" stroke:none;fill-rule:nonzero;fill:rgb(0%,44.313726%,89.019608%);fill-opacity:1;" d="M 46.078125 20.480469 C 32.003906 20.480469 20.480469 32.003906 20.480469 46.078125 L 20.480469 209.921875 C 20.480469 223.996094 32.003906 235.519531 46.078125 235.519531 L 209.921875 235.519531 C 223.996094 235.519531 235.519531 223.996094 235.519531 209.921875 L 235.519531 46.078125 C 235.519531 32.003906 223.996094 20.480469 209.921875 20.480469 Z M 46.078125 30.71875 L 209.921875 30.71875 C 218.460938 30.71875 225.28125 37.539062 225.28125 46.078125 L 225.28125 209.921875 C 225.28125 218.460938 218.460938 225.28125 209.921875 225.28125 L 46.078125 225.28125 C 37.539062 225.28125 30.71875 218.460938 30.71875 209.921875 L 30.71875 46.078125 C 30.71875 37.539062 37.539062 30.71875 46.078125 30.71875 Z M 71.679688 56.378906 C 66.074219 56.378906 61.027344 58.054688 57.289062 61.199219 C 53.554688 64.34375 51.261719 69.039062 51.261719 74.070312 C 51.261719 83.628906 59.550781 91.082031 70.101562 91.820312 C 70.105469 91.824219 70.113281 91.828125 70.121094 91.828125 C 70.621094 92 71.148438 92.09375 71.679688 92.101562 C 83.316406 92.101562 92.101562 83.949219 92.101562 74.070312 C 92.097656 73.980469 92.097656 73.890625 92.089844 73.800781 C 91.570312 64.070312 82.894531 56.378906 71.679688 56.378906 Z M 71.679688 66.5 C 78.808594 66.5 81.621094 69.683594 81.929688 74.199219 C 81.867188 78.585938 79.15625 81.980469 71.679688 81.980469 C 64.585938 81.980469 61.378906 78.347656 61.378906 74.070312 C 61.378906 71.929688 62.160156 70.320312 63.800781 68.941406 C 65.441406 67.558594 68.070312 66.5 71.679688 66.5 Z M 56.320312 97.28125 C 53.492188 97.28125 51.199219 99.574219 51.199219 102.398438 L 51.199219 199.679688 C 51.199219 202.507812 53.492188 204.800781 56.320312 204.800781 L 87.039062 204.800781 C 89.867188 204.800781 92.160156 202.507812 92.160156 199.679688 L 92.160156 102.398438 C 92.160156 99.574219 89.867188 97.28125 87.039062 97.28125 Z M 102.398438 97.28125 C 99.574219 97.28125 97.28125 99.574219 97.28125 102.398438 L 97.28125 199.679688 C 97.28125 202.507812 99.574219 204.800781 102.398438 204.800781 L 133.121094 204.800781 C 135.949219 204.800781 138.238281 202.507812 138.238281 199.679688 L 138.238281 148.480469 C 138.238281 144.230469 139.398438 140.007812 141.441406 137.238281 C 143.480469 134.472656 146.054688 132.8125 150.949219 132.898438 C 155.996094 132.988281 158.667969 134.714844 160.691406 137.429688 C 162.710938 140.144531 163.839844 144.214844 163.839844 148.480469 L 163.839844 199.679688 C 163.839844 202.507812 166.132812 204.800781 168.960938 204.800781 L 199.679688 204.800781 C 202.507812 204.800781 204.800781 202.507812 204.800781 199.679688 L 204.800781 144.699219 C 204.800781 129.535156 200.308594 117.527344 192.609375 109.398438 C 184.910156 101.273438 174.203125 97.28125 162.878906 97.28125 C 152.117188 97.28125 143.925781 100.890625 138.238281 104.570312 L 138.238281 102.398438 C 138.238281 99.574219 135.949219 97.28125 133.121094 97.28125 Z M 61.441406 107.519531 L 81.921875 107.519531 L 81.921875 194.558594 L 61.441406 194.558594 Z M 107.519531 107.519531 L 128 107.519531 L 128 115.511719 C 128 117.710938 129.410156 119.667969 131.496094 120.363281 C 133.585938 121.0625 135.886719 120.347656 137.210938 118.589844 C 137.210938 118.589844 145.25 107.519531 162.878906 107.519531 C 171.855469 107.519531 179.554688 110.503906 185.179688 116.441406 C 190.804688 122.378906 194.558594 131.523438 194.558594 144.699219 L 194.558594 194.558594 L 174.078125 194.558594 L 174.078125 148.480469 C 174.078125 142.507812 172.648438 136.332031 168.910156 131.308594 C 165.171875 126.289062 158.882812 122.792969 151.128906 122.660156 C 143.335938 122.523438 136.949219 126.089844 133.199219 131.171875 C 129.453125 136.25 128 142.488281 128 148.480469 L 128 194.558594 L 107.519531 194.558594 Z M 107.519531 107.519531 "/>
</g>
</svg>
